HIERARCHY
ROOT Hips
{
  OFFSET 0.000000 95.000000 0.000000
  CHANNELS 6 Xposition Yposition Zposition Zrotation Xrotation Yrotation
  JOINT Spine
  {
    OFFSET 0.000000 10.000000 0.000000
    CHANNELS 3 Zrotation Xrotation Yrotation
    JOINT Spine1
    {
      OFFSET 0.000000 12.000000 0.000000
      CHANNELS 3 Zrotation Xrotation Yrotation
      JOINT Spine2
      {
        OFFSET 0.000000 12.000000 0.000000
        CHANNELS 3 Zrotation Xrotation Yrotation
        JOINT Neck
        {
          OFFSET 0.000000 10.000000 0.000000
          CHANNELS 3 Zrotation Xrotation Yrotation
          JOINT Head
          {
            OFFSET 0.000000 8.000000 0.000000
            CHANNELS 3 Zrotation Xrotation Yrotation
            End Site
            {
              OFFSET 0.000000 10.000000 0.000000
            }
          }
        }
        JOINT LeftShoulder
        {
          OFFSET 6.000000 8.000000 0.000000
          CHANNELS 3 Zrotation Xrotation Yrotation
          JOINT LeftArm
          {
            OFFSET 12.000000 0.000000 0.000000
            CHANNELS 3 Zrotation Xrotation Yrotation
            JOINT LeftForeArm
            {
              OFFSET 24.000000 0.000000 0.000000
              CHANNELS 3 Zrotation Xrotation Yrotation
              JOINT LeftHand
              {
                OFFSET 22.000000 0.000000 0.000000
                CHANNELS 3 Zrotation Xrotation Yrotation
                JOINT LeftHandThumb1
                {
                  OFFSET 1.800000 -1.400000 0.500000
                  CHANNELS 3 Zrotation Xrotation Yrotation
                  JOINT LeftHandThumb2
                  {
                    OFFSET 2.400000 0.000000 0.000000
                    CHANNELS 3 Zrotation Xrotation Yrotation
                    JOINT LeftHandThumb3
                    {
                      OFFSET 1.900000 0.000000 0.000000
                      CHANNELS 3 Zrotation Xrotation Yrotation
                      End Site
                      {
                        OFFSET 1.600000 0.000000 0.000000
                      }
                    }
                  }
                }
                JOINT LeftHandIndex1
                {
                  OFFSET 6.600000 1.200000 0.300000
                  CHANNELS 3 Zrotation Xrotation Yrotation
                  JOINT LeftHandIndex2
                  {
                    OFFSET 2.000000 0.000000 0.000000
                    CHANNELS 3 Zrotation Xrotation Yrotation
                    JOINT LeftHandIndex3
                    {
                      OFFSET 1.200000 0.000000 0.000000
                      CHANNELS 3 Zrotation Xrotation Yrotation
                      End Site
                      {
                        OFFSET 1.000000 0.000000 0.000000
                      }
                    }
                  }
                }
                JOINT LeftHandMiddle1
                {
                  OFFSET 7.200000 0.000000 0.300000
                  CHANNELS 3 Zrotation Xrotation Yrotation
                  JOINT LeftHandMiddle2
                  {
                    OFFSET 3.000000 0.000000 0.000000
                    CHANNELS 3 Zrotation Xrotation Yrotation
                    JOINT LeftHandMiddle3
                    {
                      OFFSET 2.000000 0.000000 0.000000
                      CHANNELS 3 Zrotation Xrotation Yrotation
                      End Site
                      {
                        OFFSET 1.600000 0.000000 0.000000
                      }
                    }
                  }
                }
                JOINT LeftHandRing1
                {
                  OFFSET 7.100000 -1.000000 0.400000
                  CHANNELS 3 Zrotation Xrotation Yrotation
                  JOINT LeftHandRing2
                  {
                    OFFSET 2.600000 0.000000 0.000000
                    CHANNELS 3 Zrotation Xrotation Yrotation
                    JOINT LeftHandRing3
                    {
                      OFFSET 1.600000 0.000000 0.000000
                      CHANNELS 3 Zrotation Xrotation Yrotation
                      End Site
                      {
                        OFFSET 1.300000 0.000000 0.000000
                      }
                    }
                  }
                }
                JOINT LeftHandPinky1
                {
                  OFFSET 6.500000 -2.000000 0.500000
                  CHANNELS 3 Zrotation Xrotation Yrotation
                  JOINT LeftHandPinky2
                  {
                    OFFSET 1.900000 0.000000 0.000000
                    CHANNELS 3 Zrotation Xrotation Yrotation
                    JOINT LeftHandPinky3
                    {
                      OFFSET 1.400000 0.000000 0.000000
                      CHANNELS 3 Zrotation Xrotation Yrotation
                      End Site
                      {
                        OFFSET 1.300000 0.000000 0.000000
                      }
                    }
                  }
                }
              }
            }
          }
        }
        JOINT RightShoulder
        {
          OFFSET -6.000000 8.000000 0.000000
          CHANNELS 3 Zrotation Xrotation Yrotation
          JOINT RightArm
          {
            OFFSET -12.000000 0.000000 0.000000
            CHANNELS 3 Zrotation Xrotation Yrotation
            JOINT RightForeArm
            {
              OFFSET -24.000000 0.000000 0.000000
              CHANNELS 3 Zrotation Xrotation Yrotation
              JOINT RightHand
              {
                OFFSET -22.000000 0.000000 0.000000
                CHANNELS 3 Zrotation Xrotation Yrotation
                JOINT RightHandThumb1
                {
                  OFFSET -1.800000 -1.400000 0.500000
                  CHANNELS 3 Zrotation Xrotation Yrotation
                  JOINT RightHandThumb2
                  {
                    OFFSET -2.400000 0.000000 0.000000
                    CHANNELS 3 Zrotation Xrotation Yrotation
                    JOINT RightHandThumb3
                    {
                      OFFSET -1.900000 0.000000 0.000000
                      CHANNELS 3 Zrotation Xrotation Yrotation
                      End Site
                      {
                        OFFSET -1.600000 0.000000 0.000000
                      }
                    }
                  }
                }
                JOINT RightHandIndex1
                {
                  OFFSET -6.600000 1.200000 0.300000
                  CHANNELS 3 Zrotation Xrotation Yrotation
                  JOINT RightHandIndex2
                  {
                    OFFSET -2.000000 0.000000 0.000000
                    CHANNELS 3 Zrotation Xrotation Yrotation
                    JOINT RightHandIndex3
                    {
                      OFFSET -1.200000 0.000000 0.000000
                      CHANNELS 3 Zrotation Xrotation Yrotation
                      End Site
                      {
                        OFFSET -1.000000 0.000000 0.000000
                      }
                    }
                  }
                }
                JOINT RightHandMiddle1
                {
                  OFFSET -7.200000 0.000000 0.300000
                  CHANNELS 3 Zrotation Xrotation Yrotation
                  JOINT RightHandMiddle2
                  {
                    OFFSET -3.000000 0.000000 0.000000
                    CHANNELS 3 Zrotation Xrotation Yrotation
                    JOINT RightHandMiddle3
                    {
                      OFFSET -2.000000 0.000000 0.000000
                      CHANNELS 3 Zrotation Xrotation Yrotation
                      End Site
                      {
                        OFFSET -1.600000 0.000000 0.000000
                      }
                    }
                  }
                }
                JOINT RightHandRing1
                {
                  OFFSET -7.100000 -1.000000 0.400000
                  CHANNELS 3 Zrotation Xrotation Yrotation
                  JOINT RightHandRing2
                  {
                    OFFSET -2.600000 0.000000 0.000000
                    CHANNELS 3 Zrotation Xrotation Yrotation
                    JOINT RightHandRing3
                    {
                      OFFSET -1.600000 0.000000 0.000000
                      CHANNELS 3 Zrotation Xrotation Yrotation
                      End Site
                      {
                        OFFSET -1.300000 0.000000 0.000000
                      }
                    }
                  }
                }
                JOINT RightHandPinky1
                {
                  OFFSET -6.500000 -2.000000 0.500000
                  CHANNELS 3 Zrotation Xrotation Yrotation
                  JOINT RightHandPinky2
                  {
                    OFFSET -1.900000 0.000000 0.000000
                    CHANNELS 3 Zrotation Xrotation Yrotation
                    JOINT RightHandPinky3
                    {
                      OFFSET -1.400000 0.000000 0.000000
                      CHANNELS 3 Zrotation Xrotation Yrotation
                      End Site
                      {
                        OFFSET -1.300000 0.000000 0.000000
                      }
                    }
                  }
                }
              }
            }
          }
        }
      }
    }
  }
  JOINT LeftUpLeg
  {
    OFFSET 10.000000 -5.000000 0.000000
    CHANNELS 3 Zrotation Xrotation Yrotation
    JOINT LeftLeg
    {
      OFFSET 0.000000 -42.000000 0.000000
      CHANNELS 3 Zrotation Xrotation Yrotation
      JOINT LeftFoot
      {
        OFFSET 0.000000 -42.000000 4.000000
        CHANNELS 3 Zrotation Xrotation Yrotation
        End Site
        {
          OFFSET 0.000000 0.000000 12.000000
        }
      }
    }
  }
  JOINT RightUpLeg
  {
    OFFSET -10.000000 -5.000000 0.000000
    CHANNELS 3 Zrotation Xrotation Yrotation
    JOINT RightLeg
    {
      OFFSET 0.000000 -42.000000 0.000000
      CHANNELS 3 Zrotation Xrotation Yrotation
      JOINT RightFoot
      {
        OFFSET 0.000000 -42.000000 4.000000
        CHANNELS 3 Zrotation Xrotation Yrotation
        End Site
        {
          OFFSET 0.000000 0.000000 12.000000
        }
      }
    }
  }
}
MOTION
Frames: 10
Frame Time: 0.033333
0.0000 95.0000 0.0000 0.0000 0.0000 0.0000 0.0000 0.0000 0.0000 0.0000 0.0000 0.0000 0.0000 0.0000 0.0000 0.0000 0.0000 0.0000 0.0000 0.0000 0.0000 0.0000 0.0000 0.0000 -81.3287 9.4827 11.0296 -9.1578 -2.7219 5.5958 156.5742 41.4844 4.5257 56.8729 -8.6504 22.5609 22.9507 0.0000 0.0000 28.8761 0.0000 0.0000 -22.4538 1.1065 6.5733 14.4976 0.0000 0.0000 4.8263 0.0000 0.0000 -15.2743 -0.8556 -11.1459 110.0000 0.0000 0.0000 22.8340 0.0000 0.0000 -11.0914 -5.0706 -23.5795 110.0000 0.0000 0.0000 13.4252 0.0000 0.0000 -8.8409 -11.1031 -29.9081 110.0000 0.0000 0.0000 8.8745 0.0000 0.0000 0.0000 0.0000 0.0000 89.2855 3.2400 -3.2806 -2.1525 2.4162 2.4763 -179.5866 54.6910 -174.7694 -50.2942 -11.8652 4.6949 9.7898 0.0000 0.0000 4.5822 0.0000 0.0000 0.5725 1.1078 6.1334 11.0968 0.0000 0.0000 4.2144 0.0000 0.0000 -10.9239 0.5596 10.6190 8.0559 0.0000 0.0000 6.0020 0.0000 0.0000 -20.2236 -0.7944 8.8757 10.7404 0.0000 0.0000 4.3637 0.0000 0.0000 -29.7037 -2.3806 5.8065 8.0985 0.0000 0.0000 4.6938 0.0000 0.0000 0.0000 0.0000 0.0000 0.0000 0.0000 0.0000 0.0000 0.0000 0.0000 0.0000 0.0000 0.0000 0.0000 0.0000 0.0000 0.0000 0.0000 0.0000
0.0000 95.0000 0.0000 0.0000 0.0000 0.0000 0.0000 0.0000 0.0000 0.0000 0.0000 0.0000 0.0000 0.0000 0.0000 0.0000 0.0000 0.0000 0.0000 0.0000 0.0000 0.0000 0.0000 0.0000 -80.9317 8.2710 9.6895 -9.5898 -2.4965 5.2234 156.1346 39.9467 5.8097 56.8729 -8.6504 22.5609 22.9507 0.0000 0.0000 28.8761 0.0000 0.0000 -22.4538 1.1065 6.5733 14.4976 0.0000 0.0000 4.8263 0.0000 0.0000 -15.2743 -0.8556 -11.1459 110.0000 0.0000 0.0000 22.8340 0.0000 0.0000 -11.0914 -5.0706 -23.5795 110.0000 0.0000 0.0000 13.4252 0.0000 0.0000 -8.8409 -11.1031 -29.9081 110.0000 0.0000 0.0000 8.8745 0.0000 0.0000 0.0000 0.0000 0.0000 87.8585 1.2264 -1.2731 -1.9075 4.5128 4.5757 -181.8330 58.7339 -180.8659 -50.2942 -11.8652 4.6949 9.7898 0.0000 0.0000 4.5822 0.0000 0.0000 0.5725 1.1078 6.1334 11.0968 0.0000 0.0000 4.2144 0.0000 0.0000 -10.9239 0.5596 10.6190 8.0559 0.0000 0.0000 6.0020 0.0000 0.0000 -20.2236 -0.7944 8.8757 10.7404 0.0000 0.0000 4.3637 0.0000 0.0000 -29.7037 -2.3806 5.8065 8.0985 0.0000 0.0000 4.6938 0.0000 0.0000 0.0000 0.0000 0.0000 0.0000 0.0000 0.0000 0.0000 0.0000 0.0000 0.0000 0.0000 0.0000 0.0000 0.0000 0.0000 0.0000 0.0000 0.0000
0.0000 95.0000 0.0000 0.0000 0.0000 0.0000 0.0000 0.0000 0.0000 0.0000 0.0000 0.0000 0.0000 0.0000 0.0000 0.0000 0.0000 0.0000 0.0000 0.0000 0.0000 0.0000 0.0000 0.0000 -80.5324 7.1362 8.4205 -9.9992 -2.2628 4.8086 155.6869 38.4560 7.0536 56.8729 -8.6504 22.5609 22.9507 0.0000 0.0000 28.8761 0.0000 0.0000 -22.4538 1.1065 6.5733 14.4976 0.0000 0.0000 4.8263 0.0000 0.0000 -15.2743 -0.8556 -11.1459 110.0000 0.0000 0.0000 22.8340 0.0000 0.0000 -11.0914 -5.0706 -23.5795 110.0000 0.0000 0.0000 13.4252 0.0000 0.0000 -8.8409 -11.1031 -29.9081 110.0000 0.0000 0.0000 8.8745 0.0000 0.0000 0.0000 0.0000 0.0000 86.6508 -0.1246 0.1321 -1.7817 6.2296 6.3972 -184.7685 61.7093 -186.6384 -50.2942 -11.8652 4.6949 9.7898 0.0000 0.0000 4.5822 0.0000 0.0000 0.5725 1.1078 6.1334 11.0968 0.0000 0.0000 4.2144 0.0000 0.0000 -10.9239 0.5596 10.6190 8.0559 0.0000 0.0000 6.0020 0.0000 0.0000 -20.2236 -0.7944 8.8757 10.7404 0.0000 0.0000 4.3637 0.0000 0.0000 -29.7037 -2.3806 5.8065 8.0985 0.0000 0.0000 4.6938 0.0000 0.0000 0.0000 0.0000 0.0000 0.0000 0.0000 0.0000 0.0000 0.0000 0.0000 0.0000 0.0000 0.0000 0.0000 0.0000 0.0000 0.0000 0.0000 0.0000
0.0000 95.0000 0.0000 0.0000 0.0000 0.0000 0.0000 0.0000 0.0000 0.0000 0.0000 0.0000 0.0000 0.0000 0.0000 0.0000 0.0000 0.0000 0.0000 0.0000 0.0000 0.0000 0.0000 0.0000 -80.0278 6.4351 7.6619 -10.4717 -1.7880 4.1370 155.3240 37.1803 8.1319 56.8729 -8.6504 22.5609 22.9507 0.0000 0.0000 28.8761 0.0000 0.0000 -22.4538 1.1065 6.5733 14.4976 0.0000 0.0000 4.8263 0.0000 0.0000 -15.2743 -0.8556 -11.1459 110.0000 0.0000 0.0000 22.8340 0.0000 0.0000 -11.0914 -5.0706 -23.5795 110.0000 0.0000 0.0000 13.4252 0.0000 0.0000 -8.8409 -11.1031 -29.9081 110.0000 0.0000 0.0000 8.8745 0.0000 0.0000 0.0000 0.0000 0.0000 85.7648 -1.3311 1.4334 -1.4065 7.0770 7.3863 -186.7522 63.6952 -190.6414 -50.2942 -11.8652 4.6949 9.7898 0.0000 0.0000 4.5822 0.0000 0.0000 0.5725 1.1078 6.1334 11.0968 0.0000 0.0000 4.2144 0.0000 0.0000 -10.9239 0.5596 10.6190 8.0559 0.0000 0.0000 6.0020 0.0000 0.0000 -20.2236 -0.7944 8.8757 10.7404 0.0000 0.0000 4.3637 0.0000 0.0000 -29.7037 -2.3806 5.8065 8.0985 0.0000 0.0000 4.6938 0.0000 0.0000 0.0000 0.0000 0.0000 0.0000 0.0000 0.0000 0.0000 0.0000 0.0000 0.0000 0.0000 0.0000 0.0000 0.0000 0.0000 0.0000 0.0000 0.0000
0.0000 95.0000 0.0000 0.0000 0.0000 0.0000 0.0000 0.0000 0.0000 0.0000 0.0000 0.0000 0.0000 0.0000 0.0000 0.0000 0.0000 0.0000 0.0000 0.0000 0.0000 0.0000 0.0000 0.0000 -79.8340 5.6373 6.7358 -10.9194 -1.6326 3.8282 155.2883 36.0519 9.1864 56.8729 -8.6504 22.5609 22.9507 0.0000 0.0000 28.8761 0.0000 0.0000 -22.4538 1.1065 6.5733 14.4976 0.0000 0.0000 4.8263 0.0000 0.0000 -15.2743 -0.8556 -11.1459 110.0000 0.0000 0.0000 22.8340 0.0000 0.0000 -11.0914 -5.0706 -23.5795 110.0000 0.0000 0.0000 13.4252 0.0000 0.0000 -8.8409 -11.1031 -29.9081 110.0000 0.0000 0.0000 8.8745 0.0000 0.0000 0.0000 0.0000 0.0000 84.8657 -1.7746 1.9412 -0.8332 7.4500 7.9799 -188.0198 64.5383 -192.7659 -50.2942 -11.8652 4.6949 9.7898 0.0000 0.0000 4.5822 0.0000 0.0000 0.5725 1.1078 6.1334 11.0968 0.0000 0.0000 4.2144 0.0000 0.0000 -10.9239 0.5596 10.6190 8.0559 0.0000 0.0000 6.0020 0.0000 0.0000 -20.2236 -0.7944 8.8757 10.7404 0.0000 0.0000 4.3637 0.0000 0.0000 -29.7037 -2.3806 5.8065 8.0985 0.0000 0.0000 4.6938 0.0000 0.0000 0.0000 0.0000 0.0000 0.0000 0.0000 0.0000 0.0000 0.0000 0.0000 0.0000 0.0000 0.0000 0.0000 0.0000 0.0000 0.0000 0.0000 0.0000
0.0000 95.0000 0.0000 0.0000 0.0000 0.0000 0.0000 0.0000 0.0000 0.0000 0.0000 0.0000 0.0000 0.0000 0.0000 0.0000 0.0000 0.0000 0.0000 0.0000 0.0000 0.0000 0.0000 0.0000 -79.4867 5.3309 6.4092 -10.9978 -1.6929 3.8798 154.8661 35.8683 9.2183 56.8729 -8.6504 22.5609 22.9507 0.0000 0.0000 28.8761 0.0000 0.0000 -22.4538 1.1065 6.5733 14.4976 0.0000 0.0000 4.8263 0.0000 0.0000 -15.2743 -0.8556 -11.1459 110.0000 0.0000 0.0000 22.8340 0.0000 0.0000 -11.0914 -5.0706 -23.5795 110.0000 0.0000 0.0000 13.4252 0.0000 0.0000 -8.8409 -11.1031 -29.9081 110.0000 0.0000 0.0000 8.8745 0.0000 0.0000 0.0000 0.0000 0.0000 84.1815 -2.2934 2.5389 -0.9272 7.7891 8.4083 -190.4072 65.2697 -195.8592 -50.2942 -11.8652 4.6949 9.7898 0.0000 0.0000 4.5822 0.0000 0.0000 0.5725 1.1078 6.1334 11.0968 0.0000 0.0000 4.2144 0.0000 0.0000 -10.9239 0.5596 10.6190 8.0559 0.0000 0.0000 6.0020 0.0000 0.0000 -20.2236 -0.7944 8.8757 10.7404 0.0000 0.0000 4.3637 0.0000 0.0000 -29.7037 -2.3806 5.8065 8.0985 0.0000 0.0000 4.6938 0.0000 0.0000 0.0000 0.0000 0.0000 0.0000 0.0000 0.0000 0.0000 0.0000 0.0000 0.0000 0.0000 0.0000 0.0000 0.0000 0.0000 0.0000 0.0000 0.0000
0.0000 95.0000 0.0000 0.0000 0.0000 0.0000 0.0000 0.0000 0.0000 0.0000 0.0000 0.0000 0.0000 0.0000 0.0000 0.0000 0.0000 0.0000 0.0000 0.0000 0.0000 0.0000 0.0000 0.0000 -79.1700 5.4968 6.6456 -11.0729 -1.6393 3.8841 154.6481 36.1012 8.9232 56.8729 -8.6504 22.5609 22.9507 0.0000 0.0000 28.8761 0.0000 0.0000 -22.4538 1.1065 6.5733 14.4976 0.0000 0.0000 4.8263 0.0000 0.0000 -15.2743 -0.8556 -11.1459 110.0000 0.0000 0.0000 22.8340 0.0000 0.0000 -11.0914 -5.0706 -23.5795 110.0000 0.0000 0.0000 13.4252 0.0000 0.0000 -8.8409 -11.1031 -29.9081 110.0000 0.0000 0.0000 8.8745 0.0000 0.0000 0.0000 0.0000 0.0000 83.6524 -2.2222 2.4831 -0.7822 7.7018 8.4208 -191.2270 65.1129 -196.4672 -50.2942 -11.8652 4.6949 9.7898 0.0000 0.0000 4.5822 0.0000 0.0000 0.5725 1.1078 6.1334 11.0968 0.0000 0.0000 4.2144 0.0000 0.0000 -10.9239 0.5596 10.6190 8.0559 0.0000 0.0000 6.0020 0.0000 0.0000 -20.2236 -0.7944 8.8757 10.7404 0.0000 0.0000 4.3637 0.0000 0.0000 -29.7037 -2.3806 5.8065 8.0985 0.0000 0.0000 4.6938 0.0000 0.0000 0.0000 0.0000 0.0000 0.0000 0.0000 0.0000 0.0000 0.0000 0.0000 0.0000 0.0000 0.0000 0.0000 0.0000 0.0000 0.0000 0.0000 0.0000
0.0000 95.0000 0.0000 0.0000 0.0000 0.0000 0.0000 0.0000 0.0000 0.0000 0.0000 0.0000 0.0000 0.0000 0.0000 0.0000 0.0000 0.0000 0.0000 0.0000 0.0000 0.0000 0.0000 0.0000 -79.0701 5.3186 6.4417 -10.9861 -1.3043 3.3383 154.2854 35.5108 9.3648 56.8729 -8.6504 22.5609 22.9507 0.0000 0.0000 28.8761 0.0000 0.0000 -22.4538 1.1065 6.5733 14.4976 0.0000 0.0000 4.8263 0.0000 0.0000 -15.2743 -0.8556 -11.1459 110.0000 0.0000 0.0000 22.8340 0.0000 0.0000 -11.0914 -5.0706 -23.5795 110.0000 0.0000 0.0000 13.4252 0.0000 0.0000 -8.8409 -11.1031 -29.9081 110.0000 0.0000 0.0000 8.8745 0.0000 0.0000 0.0000 0.0000 0.0000 82.7077 -2.0958 2.3810 1.0167 8.1152 9.3887 -189.8287 65.7775 -195.8860 -50.2942 -11.8652 4.6949 9.7898 0.0000 0.0000 4.5822 0.0000 0.0000 0.5725 1.1078 6.1334 11.0968 0.0000 0.0000 4.2144 0.0000 0.0000 -10.9239 0.5596 10.6190 8.0559 0.0000 0.0000 6.0020 0.0000 0.0000 -20.2236 -0.7944 8.8757 10.7404 0.0000 0.0000 4.3637 0.0000 0.0000 -29.7037 -2.3806 5.8065 8.0985 0.0000 0.0000 4.6938 0.0000 0.0000 0.0000 0.0000 0.0000 0.0000 0.0000 0.0000 0.0000 0.0000 0.0000 0.0000 0.0000 0.0000 0.0000 0.0000 0.0000 0.0000 0.0000 0.0000
0.0000 95.0000 0.0000 0.0000 0.0000 0.0000 0.0000 0.0000 0.0000 0.0000 0.0000 0.0000 0.0000 0.0000 0.0000 0.0000 0.0000 0.0000 0.0000 0.0000 0.0000 0.0000 0.0000 0.0000 -78.5823 5.5606 6.7932 -11.3992 -1.1115 3.2286 154.2840 35.6760 9.2064 56.8729 -8.6504 22.5609 22.9507 0.0000 0.0000 28.8761 0.0000 0.0000 -22.4538 1.1065 6.5733 14.4976 0.0000 0.0000 4.8263 0.0000 0.0000 -15.2743 -0.8556 -11.1459 110.0000 0.0000 0.0000 22.8340 0.0000 0.0000 -11.0914 -5.0706 -23.5795 110.0000 0.0000 0.0000 13.4252 0.0000 0.0000 -8.8409 -11.1031 -29.9081 110.0000 0.0000 0.0000 8.8745 0.0000 0.0000 0.0000 0.0000 0.0000 82.0230 -1.4209 1.6339 2.2216 10.3138 12.3483 -191.0372 67.4607 -198.9790 -50.2942 -11.8652 4.6949 9.7898 0.0000 0.0000 4.5822 0.0000 0.0000 0.5725 1.1078 6.1334 11.0968 0.0000 0.0000 4.2144 0.0000 0.0000 -10.9239 0.5596 10.6190 8.0559 0.0000 0.0000 6.0020 0.0000 0.0000 -20.2236 -0.7944 8.8757 10.7404 0.0000 0.0000 4.3637 0.0000 0.0000 -29.7037 -2.3806 5.8065 8.0985 0.0000 0.0000 4.6938 0.0000 0.0000 0.0000 0.0000 0.0000 0.0000 0.0000 0.0000 0.0000 0.0000 0.0000 0.0000 0.0000 0.0000 0.0000 0.0000 0.0000 0.0000 0.0000 0.0000
0.0000 95.0000 0.0000 0.0000 0.0000 0.0000 0.0000 0.0000 0.0000 0.0000 0.0000 0.0000 0.0000 0.0000 0.0000 0.0000 0.0000 0.0000 0.0000 0.0000 0.0000 0.0000 0.0000 0.0000 -76.9202 8.4002 10.5645 -11.4149 -1.5105 4.7584 153.5904 40.2386 4.5019 56.8729 -8.6504 22.5609 22.9507 0.0000 0.0000 28.8761 0.0000 0.0000 -22.4538 1.1065 6.5733 14.4976 0.0000 0.0000 4.8263 0.0000 0.0000 -15.2743 -0.8556 -11.1459 110.0000 0.0000 0.0000 22.8340 0.0000 0.0000 -11.0914 -5.0706 -23.5795 110.0000 0.0000 0.0000 13.4252 0.0000 0.0000 -8.8409 -11.1031 -29.9081 110.0000 0.0000 0.0000 8.8745 0.0000 0.0000 0.0000 0.0000 0.0000 80.8516 -0.3522 0.4135 8.0687 13.1280 17.7934 -177.3448 55.2391 -177.2655 -81.0837 -14.4634 26.2328 45.7991 0.0000 0.0000 20.6200 0.0000 0.0000 -8.2428 0.8873 4.9315 11.2145 0.0000 0.0000 7.4803 0.0000 0.0000 -32.9334 3.1312 15.3378 41.0446 0.0000 0.0000 26.9838 0.0000 0.0000 -47.2130 1.2474 13.9567 57.9733 0.0000 0.0000 31.4268 0.0000 0.0000 -66.2120 -0.0937 16.2517 83.0733 0.0000 0.0000 38.6167 0.0000 0.0000 0.0000 0.0000 0.0000 0.0000 0.0000 0.0000 0.0000 0.0000 0.0000 0.0000 0.0000 0.0000 0.0000 0.0000 0.0000 0.0000 0.0000 0.0000
